<svg width="315" height="317" viewBox="0 0 315 317" fill="none" xmlns="http://www.w3.org/2000/svg">
<path d="M169.03 171.765C182.873 145.731 200.72 125.015 218.363 112.56C236.031 100.087 253.356 95.9833 266.267 102.848C279.178 109.713 285.464 126.371 285.003 147.994C284.543 169.584 277.349 195.965 263.506 221.999C249.663 248.033 231.816 268.749 214.174 281.204C196.505 293.678 179.181 297.781 166.269 290.916C153.358 284.051 147.072 267.394 147.533 245.771C147.994 224.18 155.188 197.8 169.03 171.765Z" stroke="#44FFA1"/>
<path d="M133.03 152.765C146.873 126.731 164.72 106.015 182.363 93.5603C200.031 81.0867 217.356 76.9833 230.267 83.8483C243.178 90.7132 249.464 107.371 249.003 128.994C248.543 150.584 241.349 176.965 227.506 202.999C213.663 229.033 195.816 249.749 178.174 262.204C160.505 274.678 143.181 278.781 130.269 271.916C117.358 265.051 111.072 248.394 111.533 226.771C111.994 205.18 119.188 178.8 133.03 152.765Z" stroke="#44FFA1"/>
<path opacity="0.75" d="M98.9135 134.235C112.757 108.199 130.506 87.4302 147.99 74.8901C165.503 62.3296 182.604 58.1153 195.267 64.8483C207.93 71.5813 213.999 88.1157 213.379 109.658C212.759 131.165 205.466 157.494 191.623 183.529C177.78 209.565 160.03 230.334 142.546 242.874C125.034 255.435 107.933 259.649 95.2696 252.916C82.6066 246.183 76.5374 229.649 77.1577 208.107C77.7771 186.599 85.0702 160.27 98.9135 134.235Z" stroke="#44FFA1"/>
<path opacity="0.5" d="M62.0305 113.765C75.8732 87.7311 93.7204 67.0153 111.363 54.5603C129.031 42.0867 146.356 37.9833 159.267 44.8483C172.178 51.7132 178.464 68.3706 178.003 89.9935C177.543 111.584 170.349 137.965 156.506 163.999C142.663 190.033 124.816 210.749 107.174 223.204C89.5051 235.678 72.1805 239.781 59.2694 232.916C46.3583 226.051 40.0724 209.394 40.5334 187.771C40.9936 166.18 48.1877 139.8 62.0305 113.765Z" stroke="#44FFA1"/>
<path opacity="0.25" d="M25.9135 95.2349C39.7569 69.1994 57.5062 48.4302 74.9902 35.8901C92.5025 23.3296 109.604 19.1153 122.267 25.8483C134.93 32.5813 140.999 49.1157 140.379 70.6578C139.759 92.1651 132.466 118.494 118.623 144.529C104.78 170.565 87.0304 191.334 69.5464 203.874C52.0341 216.435 34.9325 220.649 22.2696 213.916C9.60664 207.183 3.53737 190.649 4.15774 169.107C4.7771 147.599 12.0702 121.27 25.9135 95.2349Z" stroke="#44FFA1"/>
</svg>
